<svg width="21" height="20" viewBox="0 0 21 20" fill="none" xmlns="http://www.w3.org/2000/svg">
<path fill-rule="evenodd" clip-rule="evenodd" d="M10.3333 20C15.8562 20 20.3333 15.5228 20.3333 10C20.3333 4.47715 15.8562 0 10.3333 0C4.8105 0 0.333344 4.47715 0.333344 10C0.333344 15.5228 4.8105 20 10.3333 20ZM11.0833 7C11.0833 6.58579 10.7476 6.25 10.3333 6.25C9.91913 6.25 9.58334 6.58579 9.58334 7L9.58334 9.25002H7.33334C6.91913 9.25002 6.58334 9.58581 6.58334 10C6.58334 10.4142 6.91913 10.75 7.33334 10.75H9.58334V13C9.58334 13.4142 9.91913 13.75 10.3333 13.75C10.7476 13.75 11.0833 13.4142 11.0833 13L11.0833 10.75H13.3333C13.7476 10.75 14.0833 10.4142 14.0833 10C14.0833 9.58581 13.7476 9.25002 13.3333 9.25002H11.0833V7Z" fill="#CDCDE0"/>
</svg>
