<svg width="21" height="20" viewBox="0 0 21 20" fill="none" xmlns="http://www.w3.org/2000/svg">
<path fill-rule="evenodd" clip-rule="evenodd" d="M1.0192 5.82274C0.5 6.77128 0.5 7.91549 0.5 10.2039V11.725C0.5 15.6258 0.5 17.5763 1.67157 18.7881C2.84315 20 4.72876 20 8.5 20H12.5C16.2712 20 18.1569 20 19.3284 18.7881C20.5 17.5763 20.5 15.6258 20.5 11.725V10.2039C20.5 7.91549 20.5 6.77128 19.9808 5.82274C19.4616 4.87421 18.5131 4.28551 16.616 3.10812L14.616 1.86687C12.6106 0.62229 11.6079 0 10.5 0C9.39206 0 8.38939 0.62229 6.38403 1.86687L4.38403 3.10813C2.48695 4.28551 1.5384 4.87421 1.0192 5.82274ZM7.5 15.25C7.08579 15.25 6.75 15.5858 6.75 16C6.75 16.4142 7.08579 16.75 7.5 16.75H13.5C13.9142 16.75 14.25 16.4142 14.25 16C14.25 15.5858 13.9142 15.25 13.5 15.25H7.5Z" fill="#CDCDE0"/>
</svg>
